<svg xmlns="http://www.w3.org/2000/svg" xmlns:xlink="http://www.w3.org/1999/xlink" version="1.1" x="0px" y="0px" viewBox="0 0 200 250" enable-background="new 0 0 200 200" xml:space="preserve"><circle cx="99.479" cy="78.623" r="12.302"/><path d="M99.479,95.192c-11.971,0-21.675,6.729-21.675,15.027c0,0.068,0.014,0.135,0.016,0.204  c0.158,11.834,9.788,21.382,21.66,21.382c11.873,0,21.503-9.548,21.661-21.382c0.001-0.069,0.014-0.136,0.014-0.204  C121.154,101.921,111.45,95.192,99.479,95.192z"/><path d="M176.467,84.19c-7.733-0.001-14.095,5.951-14.764,13.513h-12.925c-0.51-12.511-5.698-23.831-13.861-32.263l9.491-9.49  c5.82,4.874,14.526,4.584,19.993-0.883c5.782-5.782,5.783-15.189,0.002-20.971c-5.782-5.782-15.188-5.783-20.972,0  c-5.469,5.466-5.758,14.173-0.884,19.994l-9.508,9.508c-8.513-7.913-19.812-12.853-32.246-13.181V36.795  c7.562-0.668,13.513-7.029,13.513-14.762c0-8.177-6.651-14.829-14.828-14.829c-8.177,0-14.829,6.652-14.829,14.829  c0,7.732,5.951,14.093,13.513,14.762v13.623c-12.434,0.328-23.733,5.269-32.247,13.181l-9.507-9.508  c4.875-5.82,4.584-14.525-0.883-19.993c-5.782-5.782-15.188-5.782-20.971,0c-5.782,5.782-5.782,15.189,0,20.971  c5.468,5.467,14.174,5.757,19.994,0.883l9.49,9.49C55.879,73.873,50.69,85.192,50.18,97.703H37.257  c-0.669-7.562-7.029-13.513-14.762-13.513c-8.177,0-14.83,6.651-14.829,14.827c0,8.178,6.652,14.83,14.83,14.83  c7.732,0,14.092-5.951,14.76-13.513h12.889c0.152,12.716,5.134,24.285,13.198,32.962l-8.791,8.791  c-5.82-4.874-14.525-4.585-19.993,0.884c-5.783,5.782-5.783,15.189-0.002,20.97c5.783,5.783,15.19,5.782,20.973,0  c5.467-5.467,5.756-14.173,0.882-19.992l8.774-8.775c8.592,8.318,20.185,13.541,32.979,13.879v12.19  c-7.562,0.67-13.513,7.029-13.513,14.762c0,8.178,6.651,14.83,14.827,14.83c8.178,0,14.83-6.652,14.83-14.83  c0-7.732-5.951-14.092-13.513-14.762v-12.19c12.794-0.338,24.386-5.561,32.978-13.879l8.775,8.775  c-4.874,5.82-4.585,14.525,0.883,19.994c5.783,5.781,15.189,5.783,20.971,0.001c5.783-5.783,5.782-15.19,0-20.973  c-5.468-5.467-14.173-5.756-19.993-0.882l-8.793-8.793c8.064-8.677,13.046-20.246,13.199-32.962h12.889  c0.669,7.562,7.03,13.513,14.762,13.513c8.178,0,14.83-6.651,14.83-14.827C191.295,90.843,184.644,84.19,176.467,84.19z   M145.291,35.956c4.756-4.756,12.495-4.756,17.252,0.001c4.756,4.754,4.756,12.494-0.001,17.25c-4.756,4.755-12.495,4.755-17.249,0  C140.537,48.451,140.535,40.711,145.291,35.956z M53.668,53.208c-4.756,4.756-12.496,4.756-17.251,0  c-4.756-4.756-4.756-12.495,0-17.252c4.755-4.755,12.495-4.755,17.251,0.001C58.423,40.713,58.423,48.452,53.668,53.208z   M22.495,111.217c-6.726,0-12.199-5.473-12.199-12.2c-0.001-6.724,5.474-12.197,12.199-12.197c6.726,0,12.198,5.473,12.198,12.197  C34.693,105.744,29.221,111.217,22.495,111.217z M53.668,162.081c-4.756,4.756-12.496,4.757-17.252,0  c-4.755-4.754-4.754-12.495,0.001-17.251c4.756-4.755,12.496-4.755,17.25-0.001C58.424,149.586,58.424,157.325,53.668,162.081z   M145.29,144.832c4.757-4.757,12.496-4.757,17.252-0.002c4.756,4.758,4.757,12.497,0,17.254c-4.756,4.754-12.495,4.754-17.251-0.002  C140.534,157.325,140.534,149.588,145.29,144.832z M87.281,22.033c0-6.727,5.472-12.199,12.199-12.199  c6.725,0,12.198,5.472,12.198,12.199c0,6.726-5.473,12.198-12.198,12.198C92.753,34.231,87.281,28.759,87.281,22.033z   M111.678,176.004c0,6.727-5.473,12.2-12.2,12.2c-6.725,0-12.197-5.474-12.197-12.2c0-6.726,5.472-12.198,12.197-12.198  C106.205,163.806,111.678,169.278,111.678,176.004z M99.479,146.455c-25.762,0-46.72-20.958-46.72-46.72  c0-25.762,20.958-46.721,46.72-46.721s46.72,20.959,46.72,46.721C146.199,125.497,125.241,146.455,99.479,146.455z M176.465,111.217  c-6.725,0-12.196-5.473-12.196-12.198c0-6.726,5.472-12.199,12.198-12.199c6.726,0,12.198,5.472,12.198,12.199  C188.665,105.744,183.192,111.217,176.465,111.217z"/><text x="0" y="215" fill="#000000" font-size="5px" font-weight="bold" font-family="'Helvetica Neue', Helvetica, Arial-Unicode, Arial, Sans-serif">Created by Igor Esaulov</text><text x="0" y="220" fill="#000000" font-size="5px" font-weight="bold" font-family="'Helvetica Neue', Helvetica, Arial-Unicode, Arial, Sans-serif">from the Noun Project</text></svg>